<svg width="71" height="71" viewBox="0 0 71 71" fill="none" xmlns="http://www.w3.org/2000/svg">
<path opacity="0.21" fill-rule="evenodd" clip-rule="evenodd" d="M0.318359 35.2941V47.5882C0.318359 60.2908 10.6158 70.5882 23.3184 70.5882H35.3184H47.3184C60.0209 70.5882 70.3184 60.2908 70.3184 47.5882V35.2941V23C70.3184 10.2975 60.0209 0 47.3184 0H35.3184H23.3184C10.6158 0 0.318359 10.2975 0.318359 23V35.2941Z" fill="#FEC53D"/>
<path fill-rule="evenodd" clip-rule="evenodd" d="M17.8184 28.6076L32.8689 37.3701C33.031 37.4645 33.2009 37.5326 33.3739 37.5759V54.5703L18.8918 45.9277C18.2264 45.5306 17.8184 44.8089 17.8184 44.0293V28.6076ZM52.8184 28.3747V44.0293C52.8184 44.8089 52.4103 45.5306 51.7449 45.9277L37.2628 54.5703V37.427C37.2981 37.4092 37.3331 37.3903 37.3677 37.3701L52.8184 28.3747Z" fill="#FEC53D"/>
<path opacity="0.499209" fill-rule="evenodd" clip-rule="evenodd" d="M18.2911 24.3546C18.475 24.1205 18.707 23.9227 18.9775 23.7774L34.29 15.5531C34.9329 15.2078 35.7039 15.2078 36.3467 15.5531L51.6592 23.7774C51.8678 23.8894 52.0534 24.0326 52.2118 24.1996L35.4233 33.9739C35.3129 34.0382 35.2111 34.1117 35.1183 34.193C35.0256 34.1117 34.9238 34.0382 34.8134 33.9739L18.2911 24.3546Z" fill="#FEC53D"/>
</svg>
