<svg width="18" height="18" viewBox="0 0 18 18" fill="none" xmlns="http://www.w3.org/2000/svg">
<path fill-rule="evenodd" clip-rule="evenodd" d="M2.403 16.0714C2.24367 16.0714 2.09087 16.0037 1.9782 15.8831C1.86554 15.7626 1.80225 15.5991 1.80225 15.4286V2.57143C1.80225 2.40093 1.86554 2.23742 1.9782 2.11686C2.09087 1.9963 2.24367 1.92857 2.403 1.92857H13.5169C13.7559 1.92857 13.9851 1.82698 14.154 1.64614C14.323 1.4653 14.418 1.22003 14.418 0.964286C14.418 0.708541 14.323 0.463271 14.154 0.282433C13.9851 0.101594 13.7559 3.81089e-09 13.5169 0H2.403C1.76568 0 1.15447 0.270918 0.703822 0.753154C0.253172 1.23539 0 1.88944 0 2.57143V15.4286C0 16.1106 0.253172 16.7646 0.703822 17.2468C1.15447 17.7291 1.76568 18 2.403 18H14.418C15.0553 18 15.6665 17.7291 16.1172 17.2468C16.5678 16.7646 16.821 16.1106 16.821 15.4286V11.25C16.821 10.9943 16.726 10.749 16.557 10.5681C16.3881 10.3873 16.1588 10.2857 15.9199 10.2857C15.6809 10.2857 15.4517 10.3873 15.2827 10.5681C15.1137 10.749 15.0187 10.9943 15.0187 11.25V15.4286C15.0187 15.5991 14.9554 15.7626 14.8428 15.8831C14.7301 16.0037 14.5773 16.0714 14.418 16.0714H2.403ZM17.7581 4.73143C17.9173 4.54863 18.004 4.30686 17.9999 4.05704C17.9957 3.80723 17.9012 3.56887 17.7361 3.3922C17.571 3.21553 17.3482 3.11433 17.1148 3.10992C16.8813 3.10551 16.6554 3.19824 16.4846 3.36857L9.80663 10.5133L7.55622 8.02414C7.47412 7.93234 7.37586 7.8588 7.26711 7.80776C7.15836 7.75673 7.04125 7.7292 6.92252 7.72675C6.80379 7.72431 6.68578 7.747 6.57528 7.79353C6.46477 7.84005 6.36395 7.90949 6.27861 7.99785C6.19326 8.08621 6.12508 8.19175 6.07798 8.3084C6.03088 8.42506 6.00579 8.55052 6.00416 8.67758C6.00252 8.80464 6.02437 8.9308 6.06845 9.0488C6.11253 9.16679 6.17797 9.2743 6.26101 9.36514L9.14821 12.5589C9.23128 12.6511 9.33069 12.7246 9.44062 12.7753C9.55055 12.8259 9.66881 12.8526 9.78849 12.8538C9.90817 12.855 10.0269 12.8307 10.1377 12.7822C10.2485 12.7338 10.3491 12.6622 10.4338 12.5717L17.7581 4.73143Z" fill="white"/>
</svg>
