<svg width="18" height="18" viewBox="0 0 18 18" fill="none" xmlns="http://www.w3.org/2000/svg">
<path d="M9 0C13.9707 0 18 4.0293 18 9C18 13.9707 13.9707 18 9 18C4.0293 18 0 13.9707 0 9C0 4.0293 4.0293 0 9 0ZM9 3.6C8.76131 3.6 8.53239 3.69482 8.3636 3.8636C8.19482 4.03239 8.1 4.26131 8.1 4.5V9C8.10005 9.23868 8.19491 9.46756 8.3637 9.6363L11.0637 12.3363C11.2334 12.5002 11.4608 12.591 11.6968 12.5889C11.9327 12.5869 12.1585 12.4922 12.3253 12.3253C12.4922 12.1585 12.5869 11.9327 12.5889 11.6968C12.591 11.4608 12.5002 11.2334 12.3363 11.0637L9.9 8.6274V4.5C9.9 4.26131 9.80518 4.03239 9.6364 3.8636C9.46761 3.69482 9.2387 3.6 9 3.6Z" fill="white"/>
</svg>
