<svg width="65" height="59" viewBox="0 0 65 59" fill="none" xmlns="http://www.w3.org/2000/svg">
<path opacity="0.21" fill-rule="evenodd" clip-rule="evenodd" d="M0.318359 29.5V36C0.318359 48.7025 10.6158 59 23.3184 59H32.3184H41.3184C54.0209 59 64.3184 48.7025 64.3184 36V29.5V23C64.3184 10.2975 54.0209 0 41.3184 0H32.3184H23.3184C10.6158 0 0.318359 10.2975 0.318359 23V29.5Z" fill="#8280FF"/>
<path opacity="0.587821" fill-rule="evenodd" clip-rule="evenodd" d="M22.3617 22.9445C22.3617 25.8409 24.9087 28.1889 28.0506 28.1889C31.1925 28.1889 33.7395 25.8409 33.7395 22.9445C33.7395 20.048 31.1925 17.7 28.0506 17.7C24.9087 17.7 22.3617 20.048 22.3617 22.9445ZM36.5842 28.1889C36.5842 30.3612 38.4944 32.1222 40.8509 32.1222C43.2073 32.1222 45.1175 30.3612 45.1175 28.1889C45.1175 26.0166 43.2073 24.2556 40.8509 24.2556C38.4944 24.2556 36.5842 26.0166 36.5842 28.1889Z" fill="#8280FF"/>
<path fill-rule="evenodd" clip-rule="evenodd" d="M28.0268 30.8111C21.3119 30.8111 15.8027 33.9925 15.2514 40.25C15.2214 40.5909 15.9285 41.3 16.2852 41.3H39.7791C40.8475 41.3 40.8641 40.5074 40.8475 40.2511C40.4308 33.8177 34.8362 30.8111 28.0268 30.8111ZM48.6095 41.3L43.125 41.3C43.125 38.3488 42.0673 35.6253 40.2823 33.4341C45.1273 33.4828 49.0834 35.7409 49.3812 40.5133C49.3931 40.7056 49.3812 41.3 48.6095 41.3Z" fill="#8280FF"/>
</svg>
